<svg id="Layer_1" data-name="Layer 1" xmlns="http://www.w3.org/2000/svg" viewBox="0 0 146.35 84.97"><defs><style>.cls-1{fill:#0e75b0;}.cls-2{fill:#cf242a;}</style></defs><path class="cls-1" d="M39.87,57.93V70.82H36.8V37.71h8.54a15.13,15.13,0,0,1,4.62.64,9.42,9.42,0,0,1,3.39,1.87,7.73,7.73,0,0,1,2.1,3,10.73,10.73,0,0,1,.72,4.06,11,11,0,0,1-.81,4.26A9.64,9.64,0,0,1,53,54.92a10.69,10.69,0,0,1-3.68,2.22,14.27,14.27,0,0,1-4.92.79Zm0-17.41v14.6h4.39c2.84,0,5-.67,6.48-2A7.13,7.13,0,0,0,53,47.52q0-7-8.17-7Z"/><path class="cls-1" d="M69.85,71.37a12.18,12.18,0,0,1-4.72-.87A10.24,10.24,0,0,1,61.56,68a11,11,0,0,1-2.26-3.85,15,15,0,0,1-.78-5,15.5,15.5,0,0,1,.83-5.29,11,11,0,0,1,2.36-4,10.12,10.12,0,0,1,3.71-2.49,13.13,13.13,0,0,1,4.85-.85,12.11,12.11,0,0,1,4.62.84,9.38,9.38,0,0,1,3.48,2.44,10.75,10.75,0,0,1,2.2,3.88A16.29,16.29,0,0,1,81.33,59a15,15,0,0,1-.8,5,11.37,11.37,0,0,1-2.27,3.91,10.07,10.07,0,0,1-3.6,2.54,12.06,12.06,0,0,1-4.81.9m.23-22.19a9,9,0,0,0-3.51.67,7.54,7.54,0,0,0-2.69,1.95,9,9,0,0,0-1.72,3.14,13.74,13.74,0,0,0-.6,4.22,12.39,12.39,0,0,0,.6,4,9,9,0,0,0,1.7,3.05,7.22,7.22,0,0,0,2.67,2,8.59,8.59,0,0,0,3.51.68,9,9,0,0,0,3.51-.65,6.91,6.91,0,0,0,2.58-1.92,8.44,8.44,0,0,0,1.61-3.08A14.67,14.67,0,0,0,78.28,59c0-3.19-.71-5.62-2.12-7.31a7.52,7.52,0,0,0-6.08-2.53"/><path class="cls-1" d="M85.48,66.57a9.06,9.06,0,0,0,1.45,1,13,13,0,0,0,1.62.71,10.07,10.07,0,0,0,1.67.45,9.19,9.19,0,0,0,1.61.15q5.27,0,5.26-3.94a3.08,3.08,0,0,0-.37-1.56,4,4,0,0,0-1.06-1.2,8.7,8.7,0,0,0-1.66-1c-.65-.31-1.38-.63-2.2-1A21.16,21.16,0,0,1,89,58.79a8.37,8.37,0,0,1-1.94-1.51,5.59,5.59,0,0,1-1.14-1.8,6.48,6.48,0,0,1-.37-2.23,5.62,5.62,0,0,1,.69-2.8,6.49,6.49,0,0,1,1.83-2.08,8.73,8.73,0,0,1,2.67-1.3,11.09,11.09,0,0,1,3.17-.45,11.86,11.86,0,0,1,5.36,1.15v3.12a10.39,10.39,0,0,0-5.73-1.71,7.15,7.15,0,0,0-2,.28,4.63,4.63,0,0,0-1.55.79,3.54,3.54,0,0,0-1,1.21A3.38,3.38,0,0,0,88.59,53a4,4,0,0,0,.28,1.53,3.18,3.18,0,0,0,.87,1.19,7.29,7.29,0,0,0,1.52,1c.62.32,1.38.67,2.27,1a29.17,29.17,0,0,1,3,1.37,9.18,9.18,0,0,1,2.05,1.48,5.26,5.26,0,0,1,1.21,1.78,6.1,6.1,0,0,1,.39,2.27,6,6,0,0,1-.66,2.84,6.21,6.21,0,0,1-1.82,2.1,8.58,8.58,0,0,1-2.74,1.3,12.81,12.81,0,0,1-3.42.44,11.32,11.32,0,0,1-6-1.51Z"/><path class="cls-1" d="M115.71,70.54a7.27,7.27,0,0,1-3.32.77q-5.73,0-5.73-6.61V49.76h-4.15V47.17h4.15v-6l3-1v6.92h6.09v2.59h-6.09V64.24a5.93,5.93,0,0,0,.78,3.46,3.1,3.1,0,0,0,2.66,1.06,4.71,4.71,0,0,0,2.65-.83Z"/><path class="cls-1" d="M116.82,49l1.09-1L121,45.37c1.36-1.12,3-2.48,4.93-4s4.08-3.25,6.45-5.12,5-3.85,7.74-5.92l2.11-1.55,1.09-.78.55-.4s.05,0,0,0l0,0,.06,0,.14-.1c.1-.08.13-.13.2-.19a3.17,3.17,0,0,0,.89-2.08,3.73,3.73,0,0,0-.65-2.33c-2.17-3.07-4.48-6.22-6.88-9.37-1.2-1.57-2.43-3.14-3.67-4.72L130.27,4l-1-1.17-.12-.15,0-.05-.07-.07a3.27,3.27,0,0,0-.24-.27l-.23-.21-.26-.2a3.57,3.57,0,0,0-2.44-.6,3,3,0,0,0-1.16.4c-.31.19-.72.54-1.11.84l-2.34,1.85-9.17,7.15c-1.48,1.16-3,2.28-4.4,3.38s-2.86,2.18-4.24,3.21c-2.77,2.08-5.4,4-7.83,5.8S91,27.33,89,28.75l-2.8,2L85,31.63l-.56.4-.27.21-.21.2A3.53,3.53,0,0,0,83,34.36,4.05,4.05,0,0,0,83.1,36a4.53,4.53,0,0,0,.39,1l.19.31-.13.1-.23-.29a4,4,0,0,1-.53-1,4.21,4.21,0,0,1-.28-1.79A4.16,4.16,0,0,1,83.39,32c.09-.09.17-.19.26-.29l.25-.23.56-.47,1.19-1,2.66-2.17c1.9-1.55,4.06-3.28,6.42-5.16s4.94-3.89,7.67-6c1.37-1.06,2.77-2.15,4.22-3.24s2.92-2.23,4.44-3.35l9.33-6.94,2.4-1.76a11.13,11.13,0,0,1,1.32-.9,4.36,4.36,0,0,1,1.68-.5A4.72,4.72,0,0,1,129,1l.33.28.31.32c.1.11.16.2.24.3L130,2a.37.37,0,0,1,.07.1l.11.15L131,3.45l3.53,4.88c1.19,1.61,2.38,3.22,3.58,4.79,2.39,3.16,4.81,6.2,7.21,9.14a4.84,4.84,0,0,1,1,2.91,4.38,4.38,0,0,1-1.08,2.93c-.1.09-.21.23-.28.29l-.13.11-.06.06,0,0,0,.05-.53.42-1,.84-2.06,1.63c-2.73,2.12-5.35,4.07-7.77,5.88s-4.65,3.44-6.64,4.87-3.74,2.66-5.18,3.68-2.59,1.79-3.37,2.32l-1.2.8Z"/><path class="cls-2" d="M125.71,1.75l-.06.81c0,.53-.08,1.31-.17,2.3-.16,2-.39,4.79-.73,8.17-.16,1.69-.34,3.52-.55,5.45s-.42,4-.67,6.08-.48,4.29-.76,6.5c-.14,1.1-.28,2.22-.41,3.34-.07.56-.15,1.11-.21,1.67l-.06.43v.27l0,.21a2.77,2.77,0,0,1-.15.53,4.85,4.85,0,0,1-.24.51,4.37,4.37,0,0,1-1.46,1.5,6,6,0,0,1-1.81.75,6.55,6.55,0,0,1-1.91.18c-.16,0-.31,0-.47,0l-.44-.06-.83-.11c-2.21-.3-4.37-.65-6.47-1s-4.13-.63-6-.94-3.73-.6-5.41-.88c-3.35-.55-6.13-1.06-8.08-1.42-1-.17-1.74-.33-2.26-.43l-.8-.16.81.07c.53,0,1.31.09,2.3.18,2,.17,4.79.43,8.17.78,1.68.17,3.51.36,5.44.58s4,.45,6.08.71,4.28.51,6.49.8l.83.11.39,0,.36,0a5,5,0,0,0,1.45-.15,3.36,3.36,0,0,0,2.17-1.45,1.44,1.44,0,0,0,.12-.26.89.89,0,0,0,.09-.28l0-.21c0-.06,0,.06,0,0v-.18l.06-.42c.07-.56.15-1.12.22-1.68q.22-1.68.45-3.33c.29-2.21.61-4.38.91-6.48s.61-4.13.9-6.05.57-3.74.84-5.42c.54-3.35,1-6.14,1.37-8.09.17-1,.32-1.74.42-2.26s.15-.8.15-.8"/><path class="cls-2" d="M33.76,70.82H29.9V48.61q0-2.64.33-6.45h-.1a20.53,20.53,0,0,1-1,3.21L17.83,70.82h-1.9L4.64,45.56a20.23,20.23,0,0,1-1-3.4H3.56q.18,2,.18,6.49V70.82H0V37.71H5.13L15.29,60.8a29.85,29.85,0,0,1,1.52,4H17c.66-1.82,1.19-3.17,1.59-4.06l10.37-23h4.85Z"/><path class="cls-2" d="M38.26,75.91h2.11a2.75,2.75,0,0,1,1.93.62A2.2,2.2,0,0,1,43,78.24,2.83,2.83,0,0,1,42,80.5a3.74,3.74,0,0,1-2.58.84H37.94l-.74,3.47h-.82Zm1.26,4.69a2.84,2.84,0,0,0,1.95-.6,2.2,2.2,0,0,0,.67-1.69,1.57,1.57,0,0,0-.49-1.22,2.07,2.07,0,0,0-1.44-.44H38.93l-.84,3.95Z"/><path class="cls-2" d="M45.51,85a2.18,2.18,0,0,1-1.68-.66,2.54,2.54,0,0,1-.61-1.82,4.91,4.91,0,0,1,.44-2.12,3.52,3.52,0,0,1,1.23-1.52,2.93,2.93,0,0,1,1.74-.55A2.18,2.18,0,0,1,48.3,79a2.57,2.57,0,0,1,.61,1.82,5,5,0,0,1-.44,2.14,3.65,3.65,0,0,1-1.21,1.51,3,3,0,0,1-1.75.54m.06-.68a2.12,2.12,0,0,0,1.29-.46,3.08,3.08,0,0,0,.92-1.26,4.49,4.49,0,0,0,.33-1.74,2,2,0,0,0-.41-1.37A1.42,1.42,0,0,0,46.57,79a2.2,2.2,0,0,0-1.81,1A4,4,0,0,0,44,82.44a2.1,2.1,0,0,0,.41,1.36,1.44,1.44,0,0,0,1.14.49"/><path class="cls-2" d="M49.71,83.78a2.26,2.26,0,0,0,.73.36,2.56,2.56,0,0,0,.83.15,1.68,1.68,0,0,0,1-.28,1.06,1.06,0,0,0,.14-1.44,3.11,3.11,0,0,0-.82-.62,3.39,3.39,0,0,1-1-.81,1.53,1.53,0,0,1-.3-.94,1.75,1.75,0,0,1,.6-1.36,2.24,2.24,0,0,1,1.56-.54,4.29,4.29,0,0,1,.77.08,2.57,2.57,0,0,1,.74.24l-.16.76a2.54,2.54,0,0,0-1.39-.4,1.43,1.43,0,0,0-1,.32,1,1,0,0,0-.36.81,1,1,0,0,0,.2.64,2.74,2.74,0,0,0,.79.62,3.55,3.55,0,0,1,1,.84,1.55,1.55,0,0,1,.29.92,1.63,1.63,0,0,1-.61,1.34,2.61,2.61,0,0,1-1.68.5,3.45,3.45,0,0,1-.88-.12,2.61,2.61,0,0,1-.75-.29Z"/><path class="cls-2" d="M56.11,79.13H55l.16-.67h1.09l.34-1.61.84-.26L57,78.46h1.66l-.15.67H56.88l-.79,3.71a4.32,4.32,0,0,0-.11.82.62.62,0,0,0,.13.45.57.57,0,0,0,.44.15,2.75,2.75,0,0,0,1-.3l-.16.71a2.51,2.51,0,0,1-.51.18,1.66,1.66,0,0,1-.5.08c-.76,0-1.14-.39-1.14-1.18a4.57,4.57,0,0,1,.11-.88Z"/><path class="cls-2" d="M62.78,84.82A11.43,11.43,0,0,1,63,83.1h0a4.89,4.89,0,0,1-1.12,1.44,1.91,1.91,0,0,1-1.22.43,1.57,1.57,0,0,1-1.33-.61,2.67,2.67,0,0,1-.48-1.7,4.83,4.83,0,0,1,.52-2.22,3.8,3.8,0,0,1,1.39-1.59,3.65,3.65,0,0,1,2-.55,10.49,10.49,0,0,1,2,.24l-.85,4.11c-.06.27-.12.64-.18,1.12a9.15,9.15,0,0,0-.09,1Zm1-5.71A6,6,0,0,0,62.6,79a2.69,2.69,0,0,0-1.52.46A3.11,3.11,0,0,0,60,80.75a4.36,4.36,0,0,0-.4,1.85c0,1.13.4,1.69,1.2,1.69a1.65,1.65,0,0,0,1-.44,4.23,4.23,0,0,0,1-1.24A6.14,6.14,0,0,0,63.42,81Z"/><path class="cls-2" d="M70.93,75.91h.85l1.72,4.61a3.59,3.59,0,0,1,.23.86h0c.24-.37.43-.64.56-.8l3.84-4.67h1l-1.9,8.91h-.78l1.36-6.43c.1-.45.22-.91.35-1.39h0a.49.49,0,0,1-.06.13l-.51.73-3.82,4.63H73.4l-1.72-4.61s0-.09-.06-.16l-.06-.22-.06-.25a1.07,1.07,0,0,1,0-.25h0c0,.17-.06.41-.12.73s-.56,2.69-1.49,7.09H69Z"/><polygon class="cls-2" points="81.43 75.4 82.2 75.4 80.94 81.31 80.97 81.31 84.33 78.46 85.38 78.46 81.73 81.49 84.12 84.82 83.19 84.82 80.92 81.53 80.9 81.53 80.2 84.82 79.41 84.82 81.43 75.4"/><path class="cls-2" d="M87.73,85a2.18,2.18,0,0,1-1.68-.66,2.54,2.54,0,0,1-.61-1.82,4.91,4.91,0,0,1,.44-2.12,3.52,3.52,0,0,1,1.23-1.52,3,3,0,0,1,1.74-.55,2.18,2.18,0,0,1,1.67.66,2.57,2.57,0,0,1,.61,1.82,5.18,5.18,0,0,1-.43,2.14,3.75,3.75,0,0,1-1.22,1.51,3,3,0,0,1-1.75.54m.06-.68a2.1,2.1,0,0,0,1.29-.46A3.08,3.08,0,0,0,90,82.57a4.49,4.49,0,0,0,.33-1.74,2,2,0,0,0-.41-1.37A1.42,1.42,0,0,0,88.79,79,2.2,2.2,0,0,0,87,80a4,4,0,0,0-.74,2.46,2,2,0,0,0,.42,1.36,1.41,1.41,0,0,0,1.13.49"/><path class="cls-2" d="M93.26,78.46H94c-.06.44-.15,1-.27,1.66h0A4.83,4.83,0,0,1,95,78.77a2.36,2.36,0,0,1,1.36-.47c1.06,0,1.6.57,1.6,1.73a7.62,7.62,0,0,1-.2,1.26L97,84.82h-.78L97,81.13a6.87,6.87,0,0,0,.15-1c0-.77-.33-1.16-1-1.16A1.9,1.9,0,0,0,95,79.4a4.13,4.13,0,0,0-1,1.08,3.55,3.55,0,0,0-.58,1.3l-.65,3H92l1-4.57c.11-.58.21-1.17.29-1.79"/><path class="cls-2" d="M101.41,85a2.18,2.18,0,0,1-1.67-.66,2.54,2.54,0,0,1-.62-1.82,5.06,5.06,0,0,1,.44-2.12,3.52,3.52,0,0,1,1.23-1.52,3,3,0,0,1,1.74-.55,2.18,2.18,0,0,1,1.67.66,2.57,2.57,0,0,1,.62,1.82,5.18,5.18,0,0,1-.44,2.14,3.67,3.67,0,0,1-1.22,1.51,3,3,0,0,1-1.75.54m.06-.68a2.08,2.08,0,0,0,1.29-.46,3.08,3.08,0,0,0,.92-1.26,4.49,4.49,0,0,0,.33-1.74,2,2,0,0,0-.41-1.37,1.4,1.4,0,0,0-1.13-.48,2.17,2.17,0,0,0-1.8,1,4,4,0,0,0-.75,2.46,2,2,0,0,0,.42,1.36,1.42,1.42,0,0,0,1.13.49"/><path class="cls-2" d="M107,78.46h.76c-.06.44-.15,1-.27,1.66h0a4.7,4.7,0,0,1,1.2-1.35A2.33,2.33,0,0,1,110,78.3c1.07,0,1.6.57,1.6,1.73a7.62,7.62,0,0,1-.2,1.26l-.75,3.53h-.78l.76-3.69a6.87,6.87,0,0,0,.15-1c0-.77-.33-1.16-1-1.16a1.9,1.9,0,0,0-1.08.42,4.13,4.13,0,0,0-1,1.08,3.73,3.73,0,0,0-.58,1.3l-.64,3h-.79l1-4.57c.12-.58.21-1.17.3-1.79"/><path class="cls-2" d="M114,78.46h.79l-.95,4.47a5.81,5.81,0,0,0-.12.88c0,.29.16.44.48.44a1.36,1.36,0,0,0,.51-.09l-.13.64a1.84,1.84,0,0,1-.66.12,1,1,0,0,1-.75-.25,1,1,0,0,1-.25-.74,5,5,0,0,1,.14-1Zm.85-1.6a.56.56,0,0,1-.4-.17.55.55,0,0,1-.16-.4.5.5,0,0,1,.17-.4.56.56,0,0,1,.39-.15.57.57,0,0,1,.4.15.53.53,0,0,1,.17.4.54.54,0,0,1-.17.4.58.58,0,0,1-.4.17"/></svg>